<?xml version="1.0" encoding="UTF-8" standalone="no"?>
<!DOCTYPE svg PUBLIC "-//W3C//DTD SVG 1.0//EN" "http://www.w3.org/TR/2001/PR-SVG-20010719/DTD/svg10.dtd">
<svg width="17cm" height="15cm" viewBox="39 19 321 297" xmlns="http://www.w3.org/2000/svg" xmlns:xlink="http://www.w3.org/1999/xlink">
  <g>
    <rect style="fill: #e6e6fa" x="40" y="20" width="320" height="296"/>
    <rect style="fill: none; fill-opacity:0; stroke-width: 0.2; stroke: #000000" x="40" y="20" width="320" height="296"/>
  </g>
  <text font-size="13.5467" style="fill: #000000;text-anchor:start;font-family:sans-serif;font-style:normal;font-weight:normal" x="44" y="36">
    <tspan x="44" y="36">Form</tspan>
  </text>
  <g>
    <rect style="fill: #faffc2" x="48" y="68" width="304" height="212"/>
    <rect style="fill: none; fill-opacity:0; stroke-width: 0.2; stroke: #000000" x="48" y="68" width="304" height="212"/>
  </g>
  <text font-size="13.5467" style="fill: #000000;text-anchor:start;font-family:sans-serif;font-style:normal;font-weight:normal" x="52" y="84">
    <tspan x="52" y="84">Div</tspan>
  </text>
  <text font-size="12.8" style="fill: #000000;text-anchor:start;font-family:sans-serif;font-style:normal;font-weight:normal" x="56" y="12">
    <tspan x="56" y="12"></tspan>
  </text>
  <g>
    <rect style="fill: #fbe4e8" x="56" y="88" width="288" height="104"/>
    <rect style="fill: none; fill-opacity:0; stroke-width: 0.2; stroke: #000000" x="56" y="88" width="288" height="104"/>
  </g>
  <text font-size="13.5467" style="fill: #000000;text-anchor:start;font-family:sans-serif;font-style:normal;font-weight:normal" x="60" y="104">
    <tspan x="60" y="104">FieldSet 1</tspan>
  </text>
  <g>
    <rect style="fill: #ffffff" x="64" y="108" width="272" height="20"/>
    <rect style="fill: none; fill-opacity:0; stroke-width: 0.2; stroke: #000000" x="64" y="108" width="272" height="20"/>
  </g>
  <text font-size="12.8" style="fill: #000000;text-anchor:start;font-family:sans-serif;font-style:normal;font-weight:normal" x="88" y="52">
    <tspan x="88" y="52"></tspan>
  </text>
  <text font-size="13.5467" style="fill: #000000;text-anchor:start;font-family:sans-serif;font-style:normal;font-weight:normal" x="68" y="124">
    <tspan x="68" y="124">Line 1-1</tspan>
  </text>
  <g>
    <rect style="fill: #ffffff" x="64" y="136" width="272" height="20"/>
    <rect style="fill: none; fill-opacity:0; stroke-width: 0.2; stroke: #000000" x="64" y="136" width="272" height="20"/>
  </g>
  <text font-size="13.5467" style="fill: #000000;text-anchor:start;font-family:sans-serif;font-style:normal;font-weight:normal" x="68" y="152">
    <tspan x="68" y="152">Line 1-2</tspan>
  </text>
  <g>
    <rect style="fill: #ffffff" x="64" y="164" width="272" height="20"/>
    <rect style="fill: none; fill-opacity:0; stroke-width: 0.2; stroke: #000000" x="64" y="164" width="272" height="20"/>
  </g>
  <text font-size="13.5467" style="fill: #000000;text-anchor:start;font-family:sans-serif;font-style:normal;font-weight:normal" x="68" y="180">
    <tspan x="68" y="180">Line 1-3</tspan>
  </text>
  <g>
    <rect style="fill: #fbe4e8" x="56" y="200" width="288" height="72"/>
    <rect style="fill: none; fill-opacity:0; stroke-width: 0.2; stroke: #000000" x="56" y="200" width="288" height="72"/>
  </g>
  <text font-size="13.5467" style="fill: #000000;text-anchor:start;font-family:sans-serif;font-style:normal;font-weight:normal" x="60" y="216">
    <tspan x="60" y="216">FieldSet 2</tspan>
  </text>
  <g>
    <rect style="fill: #ffffff" x="64" y="220" width="272" height="20"/>
    <rect style="fill: none; fill-opacity:0; stroke-width: 0.2; stroke: #000000" x="64" y="220" width="272" height="20"/>
  </g>
  <text font-size="12.8" style="fill: #000000;text-anchor:start;font-family:sans-serif;font-style:normal;font-weight:normal" x="88" y="180">
    <tspan x="88" y="180"></tspan>
  </text>
  <text font-size="13.5467" style="fill: #000000;text-anchor:start;font-family:sans-serif;font-style:normal;font-weight:normal" x="68" y="236">
    <tspan x="68" y="236">Line 2-1</tspan>
  </text>
  <g>
    <rect style="fill: #ffffff" x="64" y="244" width="272" height="20"/>
    <rect style="fill: none; fill-opacity:0; stroke-width: 0.2; stroke: #000000" x="64" y="244" width="272" height="20"/>
  </g>
  <text font-size="13.5467" style="fill: #000000;text-anchor:start;font-family:sans-serif;font-style:normal;font-weight:normal" x="68" y="260">
    <tspan x="68" y="260">Line 2-2</tspan>
  </text>
  <g>
    <rect style="fill: #faffc2" x="48" y="288" width="304" height="20"/>
    <rect style="fill: none; fill-opacity:0; stroke-width: 0.2; stroke: #000000" x="48" y="288" width="304" height="20"/>
  </g>
  <text font-size="13.5467" style="fill: #000000;text-anchor:start;font-family:sans-serif;font-style:normal;font-weight:normal" x="52" y="304">
    <tspan x="52" y="304">ButtonBox</tspan>
  </text>
  <g>
    <rect style="fill: #faffc2" x="48" y="40" width="304" height="20"/>
    <rect style="fill: none; fill-opacity:0; stroke-width: 0.2; stroke: #000000" x="48" y="40" width="304" height="20"/>
  </g>
  <text font-size="13.5467" style="fill: #000000;text-anchor:start;font-family:sans-serif;font-style:normal;font-weight:normal" x="52" y="56">
    <tspan x="52" y="56">Header</tspan>
  </text>
</svg>
