<?xml version="1.0" encoding="UTF-8" standalone="no"?>
<!DOCTYPE svg PUBLIC "-//W3C//DTD SVG 1.0//EN" "http://www.w3.org/TR/2001/PR-SVG-20010719/DTD/svg10.dtd">
<svg width="16cm" height="25cm" viewBox="10 6 303 487" xmlns="http://www.w3.org/2000/svg" xmlns:xlink="http://www.w3.org/1999/xlink">
  <g>
    <rect style="fill: #ffffff" x="12" y="28" width="300" height="464"/>
    <rect style="fill: none; fill-opacity:0; stroke-width: 1; stroke: #000000" x="12" y="28" width="300" height="464"/>
    <rect style="fill: #ffffff" x="12" y="8" width="104.1" height="20"/>
    <rect style="fill: none; fill-opacity:0; stroke-width: 1; stroke: #000000" x="12" y="8" width="104.1" height="20"/>
    <text font-size="12.7998" style="fill: #000000;text-anchor:start;font-family:monospace;font-style:normal;font-weight:normal" x="14" y="22">Formgenerator</text>
  </g>
  <g>
    <rect style="fill: #faffc2" x="20" y="36" width="76" height="12" rx="2" ry="2"/>
    <rect style="fill: none; fill-opacity:0; stroke-width: 1; stroke-linejoin: round; stroke: #000000" x="20" y="36" width="76" height="12" rx="2" ry="2"/>
  </g>
  <text font-size="12.8" style="fill: #000000;text-anchor:start;font-family:sans-serif;font-style:normal;font-weight:normal" x="58" y="42">
    <tspan x="58" y="42"></tspan>
  </text>
  <text font-size="6.77333" style="fill: #000000;text-anchor:start;font-family:sans-serif;font-style:normal;font-weight:normal" x="24" y="44">
    <tspan x="24" y="44">FormElementInterface</tspan>
  </text>
  <g>
    <rect style="fill: #fbe4e8" x="40" y="52" width="64" height="12" rx="2" ry="2"/>
    <rect style="fill: none; fill-opacity:0; stroke-width: 1; stroke-linejoin: round; stroke: #000000" x="40" y="52" width="64" height="12" rx="2" ry="2"/>
  </g>
  <text font-size="12.8" style="fill: #000000;text-anchor:start;font-family:sans-serif;font-style:normal;font-weight:normal" x="72" y="58">
    <tspan x="72" y="58"></tspan>
  </text>
  <text font-size="6.77333" style="fill: #000000;text-anchor:start;font-family:sans-serif;font-style:normal;font-weight:normal" x="44" y="60">
    <tspan x="44" y="60">FormElement</tspan>
  </text>
  <g>
    <polyline style="fill: none; fill-opacity:0; stroke-width: 1; stroke: #000000" points="28,48 28,48 28,48 28,58 35.3868,58 "/>
    <polygon style="fill: #000000" points="38.3868,58 34.3868,60 35.3868,58 34.3868,56 "/>
    <polygon style="fill: none; fill-opacity:0; stroke-width: 1; stroke: #000000" points="38.3868,58 34.3868,60 35.3868,58 34.3868,56 "/>
  </g>
  <g>
    <rect style="fill: #fbe4e8" x="60" y="68" width="64" height="12" rx="2" ry="2"/>
    <rect style="fill: none; fill-opacity:0; stroke-width: 1; stroke-linejoin: round; stroke: #000000" x="60" y="68" width="64" height="12" rx="2" ry="2"/>
  </g>
  <text font-size="6.77333" style="fill: #000000;text-anchor:start;font-family:sans-serif;font-style:normal;font-weight:normal" x="64" y="76">
    <tspan x="64" y="76">FormCollection</tspan>
  </text>
  <g>
    <polyline style="fill: none; fill-opacity:0; stroke-width: 1; stroke: #000000" points="48,72 48,64 48,64 48,74 55.3868,74 "/>
    <polygon style="fill: #000000" points="58.3868,74 54.3868,76 55.3868,74 54.3868,72 "/>
    <polygon style="fill: none; fill-opacity:0; stroke-width: 1; stroke: #000000" points="58.3868,74 54.3868,76 55.3868,74 54.3868,72 "/>
  </g>
  <g>
    <rect style="fill: #cfeff9" x="80" y="84" width="64" height="12" rx="2" ry="2"/>
    <rect style="fill: none; fill-opacity:0; stroke-width: 1; stroke-linejoin: round; stroke: #000000" x="80" y="84" width="64" height="12" rx="2" ry="2"/>
  </g>
  <text font-size="6.77333" style="fill: #000000;text-anchor:start;font-family:sans-serif;font-style:normal;font-weight:normal" x="84" y="92">
    <tspan x="84" y="92">FormDiv</tspan>
  </text>
  <g>
    <polyline style="fill: none; fill-opacity:0; stroke-width: 1; stroke: #000000" points="68,88 68,80 68,80 68,90 75.3868,90 "/>
    <polygon style="fill: #000000" points="78.3868,90 74.3868,92 75.3868,90 74.3868,88 "/>
    <polygon style="fill: none; fill-opacity:0; stroke-width: 1; stroke: #000000" points="78.3868,90 74.3868,92 75.3868,90 74.3868,88 "/>
  </g>
  <g>
    <rect style="fill: #cfeff9" x="80" y="100" width="64" height="12" rx="2" ry="2"/>
    <rect style="fill: none; fill-opacity:0; stroke-width: 1; stroke-linejoin: round; stroke: #000000" x="80" y="100" width="64" height="12" rx="2" ry="2"/>
  </g>
  <text font-size="6.77333" style="fill: #000000;text-anchor:start;font-family:sans-serif;font-style:normal;font-weight:normal" x="84" y="108">
    <tspan x="84" y="108">FormFieldSet</tspan>
  </text>
  <g>
    <polyline style="fill: none; fill-opacity:0; stroke-width: 1; stroke: #000000" points="68,104 68,88 68,88 68,106 75.3868,106 "/>
    <polygon style="fill: #000000" points="78.3868,106 74.3868,108 75.3868,106 74.3868,104 "/>
    <polygon style="fill: none; fill-opacity:0; stroke-width: 1; stroke: #000000" points="78.3868,106 74.3868,108 75.3868,106 74.3868,104 "/>
  </g>
  <g>
    <rect style="fill: #cfeff9" x="80" y="116" width="64" height="12" rx="2" ry="2"/>
    <rect style="fill: none; fill-opacity:0; stroke-width: 1; stroke-linejoin: round; stroke: #000000" x="80" y="116" width="64" height="12" rx="2" ry="2"/>
  </g>
  <text font-size="6.77333" style="fill: #000000;text-anchor:start;font-family:sans-serif;font-style:normal;font-weight:normal" x="84" y="124">
    <tspan x="84" y="124">FormGenerator</tspan>
  </text>
  <g>
    <polyline style="fill: none; fill-opacity:0; stroke-width: 1; stroke: #000000" points="68,120 68,104 68,104 68,122 75.3868,122 "/>
    <polygon style="fill: #000000" points="78.3868,122 74.3868,124 75.3868,122 74.3868,120 "/>
    <polygon style="fill: none; fill-opacity:0; stroke-width: 1; stroke: #000000" points="78.3868,122 74.3868,124 75.3868,122 74.3868,120 "/>
  </g>
  <g>
    <rect style="fill: #cfeff9" x="100" y="132" width="64" height="12" rx="2" ry="2"/>
    <rect style="fill: none; fill-opacity:0; stroke-width: 1; stroke-linejoin: round; stroke: #000000" x="100" y="132" width="64" height="12" rx="2" ry="2"/>
  </g>
  <text font-size="6.77333" style="fill: #000000;text-anchor:start;font-family:sans-serif;font-style:normal;font-weight:normal" x="104" y="140">
    <tspan x="104" y="140">XMLForm</tspan>
  </text>
  <g>
    <polyline style="fill: none; fill-opacity:0; stroke-width: 1; stroke: #000000" points="88,136 88,128 88,128 88,138 95.3868,138 "/>
    <polygon style="fill: #000000" points="98.3868,138 94.3868,140 95.3868,138 94.3868,136 "/>
    <polygon style="fill: none; fill-opacity:0; stroke-width: 1; stroke: #000000" points="98.3868,138 94.3868,140 95.3868,138 94.3868,136 "/>
  </g>
  <g>
    <rect style="fill: #cfeff9" x="80" y="148" width="64" height="12" rx="2" ry="2"/>
    <rect style="fill: none; fill-opacity:0; stroke-width: 1; stroke-linejoin: round; stroke: #000000" x="80" y="148" width="64" height="12" rx="2" ry="2"/>
  </g>
  <text font-size="6.77333" style="fill: #000000;text-anchor:start;font-family:sans-serif;font-style:normal;font-weight:normal" x="84" y="156">
    <tspan x="84" y="156">FormLine</tspan>
  </text>
  <g>
    <polyline style="fill: none; fill-opacity:0; stroke-width: 1; stroke: #000000" points="68,152 68,120 68,120 68,154 75.3868,154 "/>
    <polygon style="fill: #000000" points="78.3868,154 74.3868,156 75.3868,154 74.3868,152 "/>
    <polygon style="fill: none; fill-opacity:0; stroke-width: 1; stroke: #000000" points="78.3868,154 74.3868,156 75.3868,154 74.3868,152 "/>
  </g>
  <g>
    <rect style="fill: #cfeff9" x="60" y="164" width="64" height="12" rx="2" ry="2"/>
    <rect style="fill: none; fill-opacity:0; stroke-width: 1; stroke-linejoin: round; stroke: #000000" x="60" y="164" width="64" height="12" rx="2" ry="2"/>
  </g>
  <text font-size="6.77333" style="fill: #000000;text-anchor:start;font-family:sans-serif;font-style:normal;font-weight:normal" x="64" y="172">
    <tspan x="64" y="172">FormButtonBox</tspan>
  </text>
  <g>
    <polyline style="fill: none; fill-opacity:0; stroke-width: 1; stroke: #000000" points="48,168 48,72 48,72 48,170 55.3868,170 "/>
    <polygon style="fill: #000000" points="58.3868,170 54.3868,172 55.3868,170 54.3868,168 "/>
    <polygon style="fill: none; fill-opacity:0; stroke-width: 1; stroke: #000000" points="58.3868,170 54.3868,172 55.3868,170 54.3868,168 "/>
  </g>
  <g>
    <rect style="fill: #cfeff9" x="60" y="180" width="64" height="12" rx="2" ry="2"/>
    <rect style="fill: none; fill-opacity:0; stroke-width: 1; stroke-linejoin: round; stroke: #000000" x="60" y="180" width="64" height="12" rx="2" ry="2"/>
  </g>
  <text font-size="6.77333" style="fill: #000000;text-anchor:start;font-family:sans-serif;font-style:normal;font-weight:normal" x="64" y="188">
    <tspan x="64" y="188">FormHeader</tspan>
  </text>
  <g>
    <polyline style="fill: none; fill-opacity:0; stroke-width: 1; stroke: #000000" points="48,184 48,164 48,164 48,186 55.3868,186 "/>
    <polygon style="fill: #000000" points="58.3868,186 54.3868,188 55.3868,186 54.3868,184 "/>
    <polygon style="fill: none; fill-opacity:0; stroke-width: 1; stroke: #000000" points="58.3868,186 54.3868,188 55.3868,186 54.3868,184 "/>
  </g>
  <g>
    <rect style="fill: #cfeff9" x="60" y="196" width="64" height="12" rx="2" ry="2"/>
    <rect style="fill: none; fill-opacity:0; stroke-width: 1; stroke-linejoin: round; stroke: #000000" x="60" y="196" width="64" height="12" rx="2" ry="2"/>
  </g>
  <text font-size="6.77333" style="fill: #000000;text-anchor:start;font-family:sans-serif;font-style:normal;font-weight:normal" x="64" y="204">
    <tspan x="64" y="204">FormImage</tspan>
  </text>
  <g>
    <polyline style="fill: none; fill-opacity:0; stroke-width: 1; stroke: #000000" points="48,200 48,184 48,184 48,202 55.3868,202 "/>
    <polygon style="fill: #000000" points="58.3868,202 54.3868,204 55.3868,202 54.3868,200 "/>
    <polygon style="fill: none; fill-opacity:0; stroke-width: 1; stroke: #000000" points="58.3868,202 54.3868,204 55.3868,202 54.3868,200 "/>
  </g>
  <g>
    <rect style="fill: #cfeff9" x="60" y="212" width="64" height="12" rx="2" ry="2"/>
    <rect style="fill: none; fill-opacity:0; stroke-width: 1; stroke-linejoin: round; stroke: #000000" x="60" y="212" width="64" height="12" rx="2" ry="2"/>
  </g>
  <text font-size="6.77333" style="fill: #000000;text-anchor:start;font-family:sans-serif;font-style:normal;font-weight:normal" x="64" y="220">
    <tspan x="64" y="220">FormScript</tspan>
  </text>
  <g>
    <polyline style="fill: none; fill-opacity:0; stroke-width: 1; stroke: #000000" points="48,216 48,200 48,200 48,218 55.3868,218 "/>
    <polygon style="fill: #000000" points="58.3868,218 54.3868,220 55.3868,218 54.3868,216 "/>
    <polygon style="fill: none; fill-opacity:0; stroke-width: 1; stroke: #000000" points="58.3868,218 54.3868,220 55.3868,218 54.3868,216 "/>
  </g>
  <g>
    <rect style="fill: #cfeff9" x="60" y="228" width="64" height="12" rx="2" ry="2"/>
    <rect style="fill: none; fill-opacity:0; stroke-width: 1; stroke-linejoin: round; stroke: #000000" x="60" y="228" width="64" height="12" rx="2" ry="2"/>
  </g>
  <text font-size="6.77333" style="fill: #000000;text-anchor:start;font-family:sans-serif;font-style:normal;font-weight:normal" x="64" y="236">
    <tspan x="64" y="236">FormStatic</tspan>
  </text>
  <g>
    <polyline style="fill: none; fill-opacity:0; stroke-width: 1; stroke: #000000" points="48,232 48,216 48,216 48,234 55.3868,234 "/>
    <polygon style="fill: #000000" points="58.3868,234 54.3868,236 55.3868,234 54.3868,232 "/>
    <polygon style="fill: none; fill-opacity:0; stroke-width: 1; stroke: #000000" points="58.3868,234 54.3868,236 55.3868,234 54.3868,232 "/>
  </g>
  <g>
    <rect style="fill: #cfeff9" x="60" y="244" width="64" height="12" rx="2" ry="2"/>
    <rect style="fill: none; fill-opacity:0; stroke-width: 1; stroke-linejoin: round; stroke: #000000" x="60" y="244" width="64" height="12" rx="2" ry="2"/>
  </g>
  <text font-size="6.77333" style="fill: #000000;text-anchor:start;font-family:sans-serif;font-style:normal;font-weight:normal" x="64" y="252">
    <tspan x="64" y="252">FormInput</tspan>
  </text>
  <g>
    <polyline style="fill: none; fill-opacity:0; stroke-width: 1; stroke: #000000" points="48,248 48,232 48,232 48,250 55.3868,250 "/>
    <polygon style="fill: #000000" points="58.3868,250 54.3868,252 55.3868,250 54.3868,248 "/>
    <polygon style="fill: none; fill-opacity:0; stroke-width: 1; stroke: #000000" points="58.3868,250 54.3868,252 55.3868,250 54.3868,248 "/>
  </g>
  <g>
    <rect style="fill: #cfeff9" x="80" y="260" width="64" height="12" rx="2" ry="2"/>
    <rect style="fill: none; fill-opacity:0; stroke-width: 1; stroke-linejoin: round; stroke: #000000" x="80" y="260" width="64" height="12" rx="2" ry="2"/>
  </g>
  <text font-size="6.77333" style="fill: #000000;text-anchor:start;font-family:sans-serif;font-style:normal;font-weight:normal" x="84" y="268">
    <tspan x="84" y="268">FormButton</tspan>
  </text>
  <g>
    <polyline style="fill: none; fill-opacity:0; stroke-width: 1; stroke: #000000" points="68,264 68,256 68,256 68,266 75.3868,266 "/>
    <polygon style="fill: #000000" points="78.3868,266 74.3868,268 75.3868,266 74.3868,264 "/>
    <polygon style="fill: none; fill-opacity:0; stroke-width: 1; stroke: #000000" points="78.3868,266 74.3868,268 75.3868,266 74.3868,264 "/>
  </g>
  <g>
    <rect style="fill: #cfeff9" x="80" y="276" width="64" height="12" rx="2" ry="2"/>
    <rect style="fill: none; fill-opacity:0; stroke-width: 1; stroke-linejoin: round; stroke: #000000" x="80" y="276" width="64" height="12" rx="2" ry="2"/>
  </g>
  <text font-size="6.77333" style="fill: #000000;text-anchor:start;font-family:sans-serif;font-style:normal;font-weight:normal" x="84" y="284">
    <tspan x="84" y="284">FormCanvas</tspan>
  </text>
  <g>
    <polyline style="fill: none; fill-opacity:0; stroke-width: 1; stroke: #000000" points="68,280 68,264 68,264 68,282 75.3868,282 "/>
    <polygon style="fill: #000000" points="78.3868,282 74.3868,284 75.3868,282 74.3868,280 "/>
    <polygon style="fill: none; fill-opacity:0; stroke-width: 1; stroke: #000000" points="78.3868,282 74.3868,284 75.3868,282 74.3868,280 "/>
  </g>
  <g>
    <rect style="fill: #cfeff9" x="80" y="292" width="64" height="12" rx="2" ry="2"/>
    <rect style="fill: none; fill-opacity:0; stroke-width: 1; stroke-linejoin: round; stroke: #000000" x="80" y="292" width="64" height="12" rx="2" ry="2"/>
  </g>
  <text font-size="6.77333" style="fill: #000000;text-anchor:start;font-family:sans-serif;font-style:normal;font-weight:normal" x="84" y="300">
    <tspan x="84" y="300">FormCheck</tspan>
  </text>
  <g>
    <polyline style="fill: none; fill-opacity:0; stroke-width: 1; stroke: #000000" points="68,296 68,280 68,280 68,298 75.3868,298 "/>
    <polygon style="fill: #000000" points="78.3868,298 74.3868,300 75.3868,298 74.3868,296 "/>
    <polygon style="fill: none; fill-opacity:0; stroke-width: 1; stroke: #000000" points="78.3868,298 74.3868,300 75.3868,298 74.3868,296 "/>
  </g>
  <g>
    <rect style="fill: #cfeff9" x="80" y="308" width="64" height="12" rx="2" ry="2"/>
    <rect style="fill: none; fill-opacity:0; stroke-width: 1; stroke-linejoin: round; stroke: #000000" x="80" y="308" width="64" height="12" rx="2" ry="2"/>
  </g>
  <text font-size="6.77333" style="fill: #000000;text-anchor:start;font-family:sans-serif;font-style:normal;font-weight:normal" x="84" y="316">
    <tspan x="84" y="316">FormCKEdit</tspan>
  </text>
  <g>
    <polyline style="fill: none; fill-opacity:0; stroke-width: 1; stroke: #000000" points="68,312 68,296 68,296 68,314 75.3868,314 "/>
    <polygon style="fill: #000000" points="78.3868,314 74.3868,316 75.3868,314 74.3868,312 "/>
    <polygon style="fill: none; fill-opacity:0; stroke-width: 1; stroke: #000000" points="78.3868,314 74.3868,316 75.3868,314 74.3868,312 "/>
  </g>
  <g>
    <rect style="fill: #cfeff9" x="80" y="324" width="64" height="12" rx="2" ry="2"/>
    <rect style="fill: none; fill-opacity:0; stroke-width: 1; stroke-linejoin: round; stroke: #000000" x="80" y="324" width="64" height="12" rx="2" ry="2"/>
  </g>
  <text font-size="6.77333" style="fill: #000000;text-anchor:start;font-family:sans-serif;font-style:normal;font-weight:normal" x="84" y="332">
    <tspan x="84" y="332">FormColor</tspan>
  </text>
  <g>
    <polyline style="fill: none; fill-opacity:0; stroke-width: 1; stroke: #000000" points="68,328 68,312 68,312 68,330 75.3868,330 "/>
    <polygon style="fill: #000000" points="78.3868,330 74.3868,332 75.3868,330 74.3868,328 "/>
    <polygon style="fill: none; fill-opacity:0; stroke-width: 1; stroke: #000000" points="78.3868,330 74.3868,332 75.3868,330 74.3868,328 "/>
  </g>
  <g>
    <rect style="fill: #cfeff9" x="80" y="340" width="64" height="12" rx="2" ry="2"/>
    <rect style="fill: none; fill-opacity:0; stroke-width: 1; stroke-linejoin: round; stroke: #000000" x="80" y="340" width="64" height="12" rx="2" ry="2"/>
  </g>
  <text font-size="6.77333" style="fill: #000000;text-anchor:start;font-family:sans-serif;font-style:normal;font-weight:normal" x="84" y="348">
    <tspan x="84" y="348">FormDate</tspan>
  </text>
  <g>
    <polyline style="fill: none; fill-opacity:0; stroke-width: 1; stroke: #000000" points="68,344 68,328 68,328 68,346 75.3868,346 "/>
    <polygon style="fill: #000000" points="78.3868,346 74.3868,348 75.3868,346 74.3868,344 "/>
    <polygon style="fill: none; fill-opacity:0; stroke-width: 1; stroke: #000000" points="78.3868,346 74.3868,348 75.3868,346 74.3868,344 "/>
  </g>
  <g>
    <rect style="fill: #cfeff9" x="80" y="356" width="64" height="12" rx="2" ry="2"/>
    <rect style="fill: none; fill-opacity:0; stroke-width: 1; stroke-linejoin: round; stroke: #000000" x="80" y="356" width="64" height="12" rx="2" ry="2"/>
  </g>
  <text font-size="6.77333" style="fill: #000000;text-anchor:start;font-family:sans-serif;font-style:normal;font-weight:normal" x="84" y="364">
    <tspan x="84" y="364">FormFloat</tspan>
  </text>
  <g>
    <polyline style="fill: none; fill-opacity:0; stroke-width: 1; stroke: #000000" points="68,360 68,344 68,344 68,362 75.3868,362 "/>
    <polygon style="fill: #000000" points="78.3868,362 74.3868,364 75.3868,362 74.3868,360 "/>
    <polygon style="fill: none; fill-opacity:0; stroke-width: 1; stroke: #000000" points="78.3868,362 74.3868,364 75.3868,362 74.3868,360 "/>
  </g>
  <g>
    <rect style="fill: #cfeff9" x="100" y="372" width="64" height="12" rx="2" ry="2"/>
    <rect style="fill: none; fill-opacity:0; stroke-width: 1; stroke-linejoin: round; stroke: #000000" x="100" y="372" width="64" height="12" rx="2" ry="2"/>
  </g>
  <text font-size="6.77333" style="fill: #000000;text-anchor:start;font-family:sans-serif;font-style:normal;font-weight:normal" x="104" y="380">
    <tspan x="104" y="380">FormCur</tspan>
  </text>
  <g>
    <polyline style="fill: none; fill-opacity:0; stroke-width: 1; stroke: #000000" points="88,376 88,368 88,368 88,378 95.3868,378 "/>
    <polygon style="fill: #000000" points="98.3868,378 94.3868,380 95.3868,378 94.3868,376 "/>
    <polygon style="fill: none; fill-opacity:0; stroke-width: 1; stroke: #000000" points="98.3868,378 94.3868,380 95.3868,378 94.3868,376 "/>
  </g>
  <g>
    <rect style="fill: #cfeff9" x="80" y="388" width="64" height="12" rx="2" ry="2"/>
    <rect style="fill: none; fill-opacity:0; stroke-width: 1; stroke-linejoin: round; stroke: #000000" x="80" y="388" width="64" height="12" rx="2" ry="2"/>
  </g>
  <text font-size="6.77333" style="fill: #000000;text-anchor:start;font-family:sans-serif;font-style:normal;font-weight:normal" x="84" y="396">
    <tspan x="84" y="396">FormInt</tspan>
  </text>
  <g>
    <polyline style="fill: none; fill-opacity:0; stroke-width: 1; stroke: #000000" points="68,392 68,360 68,360 68,394 75.3868,394 "/>
    <polygon style="fill: #000000" points="78.3868,394 74.3868,396 75.3868,394 74.3868,392 "/>
    <polygon style="fill: none; fill-opacity:0; stroke-width: 1; stroke: #000000" points="78.3868,394 74.3868,396 75.3868,394 74.3868,392 "/>
  </g>
  <g>
    <rect style="fill: #cfeff9" x="80" y="404" width="64" height="12" rx="2" ry="2"/>
    <rect style="fill: none; fill-opacity:0; stroke-width: 1; stroke-linejoin: round; stroke: #000000" x="80" y="404" width="64" height="12" rx="2" ry="2"/>
  </g>
  <text font-size="6.77333" style="fill: #000000;text-anchor:start;font-family:sans-serif;font-style:normal;font-weight:normal" x="84" y="412">
    <tspan x="84" y="412">FormRadioGroup</tspan>
  </text>
  <g>
    <polyline style="fill: none; fill-opacity:0; stroke-width: 1; stroke: #000000" points="68,408 68,392 68,392 68,410 75.3868,410 "/>
    <polygon style="fill: #000000" points="78.3868,410 74.3868,412 75.3868,410 74.3868,408 "/>
    <polygon style="fill: none; fill-opacity:0; stroke-width: 1; stroke: #000000" points="78.3868,410 74.3868,412 75.3868,410 74.3868,408 "/>
  </g>
  <g>
    <rect style="fill: #cfeff9" x="80" y="420" width="64" height="12" rx="2" ry="2"/>
    <rect style="fill: none; fill-opacity:0; stroke-width: 1; stroke-linejoin: round; stroke: #000000" x="80" y="420" width="64" height="12" rx="2" ry="2"/>
  </g>
  <text font-size="6.77333" style="fill: #000000;text-anchor:start;font-family:sans-serif;font-style:normal;font-weight:normal" x="84" y="428">
    <tspan x="84" y="428">FormRange</tspan>
  </text>
  <g>
    <polyline style="fill: none; fill-opacity:0; stroke-width: 1; stroke: #000000" points="68,424 68,408 68,408 68,426 75.3868,426 "/>
    <polygon style="fill: #000000" points="78.3868,426 74.3868,428 75.3868,426 74.3868,424 "/>
    <polygon style="fill: none; fill-opacity:0; stroke-width: 1; stroke: #000000" points="78.3868,426 74.3868,428 75.3868,426 74.3868,424 "/>
  </g>
  <g>
    <rect style="fill: #cfeff9" x="80" y="436" width="64" height="12" rx="2" ry="2"/>
    <rect style="fill: none; fill-opacity:0; stroke-width: 1; stroke-linejoin: round; stroke: #000000" x="80" y="436" width="64" height="12" rx="2" ry="2"/>
  </g>
  <text font-size="6.77333" style="fill: #000000;text-anchor:start;font-family:sans-serif;font-style:normal;font-weight:normal" x="84" y="444">
    <tspan x="84" y="444">FormSelect</tspan>
  </text>
  <g>
    <polyline style="fill: none; fill-opacity:0; stroke-width: 1; stroke: #000000" points="68,440 68,424 68,424 68,442 75.3868,442 "/>
    <polygon style="fill: #000000" points="78.3868,442 74.3868,444 75.3868,442 74.3868,440 "/>
    <polygon style="fill: none; fill-opacity:0; stroke-width: 1; stroke: #000000" points="78.3868,442 74.3868,444 75.3868,442 74.3868,440 "/>
  </g>
  <g>
    <rect style="fill: #cfeff9" x="80" y="452" width="64" height="12" rx="2" ry="2"/>
    <rect style="fill: none; fill-opacity:0; stroke-width: 1; stroke-linejoin: round; stroke: #000000" x="80" y="452" width="64" height="12" rx="2" ry="2"/>
  </g>
  <text font-size="6.77333" style="fill: #000000;text-anchor:start;font-family:sans-serif;font-style:normal;font-weight:normal" x="84" y="460">
    <tspan x="84" y="460">FormTextArea</tspan>
  </text>
  <g>
    <polyline style="fill: none; fill-opacity:0; stroke-width: 1; stroke: #000000" points="68,456 68,440 68,440 68,458 75.3868,458 "/>
    <polygon style="fill: #000000" points="78.3868,458 74.3868,460 75.3868,458 74.3868,456 "/>
    <polygon style="fill: none; fill-opacity:0; stroke-width: 1; stroke: #000000" points="78.3868,458 74.3868,460 75.3868,458 74.3868,456 "/>
  </g>
  <g>
    <rect style="fill: #cfeff9" x="80" y="468" width="64" height="12" rx="2" ry="2"/>
    <rect style="fill: none; fill-opacity:0; stroke-width: 1; stroke-linejoin: round; stroke: #000000" x="80" y="468" width="64" height="12" rx="2" ry="2"/>
  </g>
  <text font-size="6.77333" style="fill: #000000;text-anchor:start;font-family:sans-serif;font-style:normal;font-weight:normal" x="84" y="476">
    <tspan x="84" y="476">FormTime</tspan>
  </text>
  <g>
    <polyline style="fill: none; fill-opacity:0; stroke-width: 1; stroke: #000000" points="68,472 68,456 68,456 68,474 75.3868,474 "/>
    <polygon style="fill: #000000" points="78.3868,474 74.3868,476 75.3868,474 74.3868,472 "/>
    <polygon style="fill: none; fill-opacity:0; stroke-width: 1; stroke: #000000" points="78.3868,474 74.3868,476 75.3868,474 74.3868,472 "/>
  </g>
  <g>
    <rect style="fill: #faffc2" x="200" y="36" width="76" height="12" rx="2" ry="2"/>
    <rect style="fill: none; fill-opacity:0; stroke-width: 1; stroke-linejoin: round; stroke: #000000" x="200" y="36" width="76" height="12" rx="2" ry="2"/>
  </g>
  <text font-size="6.77333" style="fill: #000000;text-anchor:start;font-family:sans-serif;font-style:normal;font-weight:normal" x="204" y="44">
    <tspan x="204" y="44">FormDataInterface</tspan>
  </text>
  <g>
    <rect style="fill: #fbe4e8" x="220" y="52" width="64" height="12" rx="2" ry="2"/>
    <rect style="fill: none; fill-opacity:0; stroke-width: 1; stroke-linejoin: round; stroke: #000000" x="220" y="52" width="64" height="12" rx="2" ry="2"/>
  </g>
  <text font-size="12.8" style="fill: #000000;text-anchor:start;font-family:sans-serif;font-style:normal;font-weight:normal" x="252" y="58">
    <tspan x="252" y="58"></tspan>
  </text>
  <text font-size="6.77333" style="fill: #000000;text-anchor:start;font-family:sans-serif;font-style:normal;font-weight:normal" x="224" y="60">
    <tspan x="224" y="60">AbstractFormData</tspan>
  </text>
  <g>
    <polyline style="fill: none; fill-opacity:0; stroke-width: 1; stroke: #000000" points="208,48 208,48 208,48 208,58 215.387,58 "/>
    <polygon style="fill: #000000" points="218.387,58 214.387,60 215.387,58 214.387,56 "/>
    <polygon style="fill: none; fill-opacity:0; stroke-width: 1; stroke: #000000" points="218.387,58 214.387,60 215.387,58 214.387,56 "/>
  </g>
  <g>
    <rect style="fill: #cfeff9" x="240" y="68" width="64" height="12" rx="2" ry="2"/>
    <rect style="fill: none; fill-opacity:0; stroke-width: 1; stroke-linejoin: round; stroke: #000000" x="240" y="68" width="64" height="12" rx="2" ry="2"/>
  </g>
  <text font-size="6.77333" style="fill: #000000;text-anchor:start;font-family:sans-serif;font-style:normal;font-weight:normal" x="244" y="76">
    <tspan x="244" y="76">ArrayFormData</tspan>
  </text>
  <g>
    <polyline style="fill: none; fill-opacity:0; stroke-width: 1; stroke: #000000" points="228,72 228,64 228,64 228,74 235.387,74 "/>
    <polygon style="fill: #000000" points="238.387,74 234.387,76 235.387,74 234.387,72 "/>
    <polygon style="fill: none; fill-opacity:0; stroke-width: 1; stroke: #000000" points="238.387,74 234.387,76 235.387,74 234.387,72 "/>
  </g>
  <g>
    <rect style="fill: #c4fbc4" x="200" y="116" width="76" height="12" rx="2" ry="2"/>
    <rect style="fill: none; fill-opacity:0; stroke-width: 1; stroke-linejoin: round; stroke: #000000" x="200" y="116" width="76" height="12" rx="2" ry="2"/>
  </g>
  <text font-size="6.77333" style="fill: #000000;text-anchor:start;font-family:sans-serif;font-style:normal;font-weight:normal" x="204" y="124">
    <tspan x="204" y="124">XMLHelper</tspan>
  </text>
  <g>
    <rect style="fill: #cfeff9" x="200" y="100" width="76" height="12" rx="2" ry="2"/>
    <rect style="fill: none; fill-opacity:0; stroke-width: 1; stroke-linejoin: round; stroke: #000000" x="200" y="100" width="76" height="12" rx="2" ry="2"/>
  </g>
  <text font-size="6.77333" style="fill: #000000;text-anchor:start;font-family:sans-serif;font-style:normal;font-weight:normal" x="204" y="108">
    <tspan x="204" y="108">FormFlags</tspan>
  </text>
  <g>
    <rect style="fill: #cfeff9" x="240" y="84" width="64" height="12" rx="2" ry="2"/>
    <rect style="fill: none; fill-opacity:0; stroke-width: 1; stroke-linejoin: round; stroke: #000000" x="240" y="84" width="64" height="12" rx="2" ry="2"/>
  </g>
  <text font-size="6.77333" style="fill: #000000;text-anchor:start;font-family:sans-serif;font-style:normal;font-weight:normal" x="244" y="92">
    <tspan x="244" y="92">NullFormData</tspan>
  </text>
  <g>
    <polyline style="fill: none; fill-opacity:0; stroke-width: 1; stroke: #000000" points="228,88 228,72 228,72 228,90 235.387,90 "/>
    <polygon style="fill: #000000" points="238.387,90 234.387,92 235.387,90 234.387,88 "/>
    <polygon style="fill: none; fill-opacity:0; stroke-width: 1; stroke: #000000" points="238.387,90 234.387,92 235.387,90 234.387,88 "/>
  </g>
</svg>
